<?xml version="1.0" encoding="UTF-8"?>
<svg id="_レイヤー_1" data-name="レイヤー_1" xmlns="http://www.w3.org/2000/svg" version="1.1" viewBox="0 0 119.949 49.806">
  <!-- Generator: Adobe Illustrator 30.2.1, SVG Export Plug-In . SVG Version: 2.1.1 Build 1)  -->
  <defs>
    <style>
      .st0 {
        fill: #6ea250;
      }
    </style>
  </defs>
  <path class="st0" d="M27.116,38.806c0,2.4.468,4.067,1.404,5.002.497.467.966.701,1.401.701v5.05l-10.238-.281.514-4.769c.468-.124.918-.436,1.357-.935.904-1.06,1.309-2.649,1.214-4.769-.219-17.517-.311-26.12-.28-25.808-.905-5.361-3.133-7.854-6.686-7.481-3.522.374-5.673,2.635-6.453,6.779-.156.811-.232,7.885-.232,27.926,0,2.026.592,3.397,1.776,4.114.591.343,1.184.499,1.776.467l.095,5.002-11.082-.047-.327-4.675c1.123.156,1.994-.452,2.619-1.824.311-.685.468-1.403.468-2.15V9.398c0-1.995-.733-3.382-2.198-4.162-.779-.404-1.527-.607-2.244-.607L.281.701,7.714.094l.328,4.535c.311-.655.903-1.293,1.776-1.917,1.713-1.247,3.896-1.808,6.546-1.684,6.202.281,9.88,3.865,11.034,10.753.062.312-.033,9.32-.281,27.024Z"/>
  <path class="st0" d="M48.687,6.767c3.169.107,5.758,1.665,7.769,4.678,1.848,2.749,2.84,6.039,2.973,9.87-.08,15.09-1.018,20.643-2.815,23.365-1.98,3.092-4.809,4.757-8.482,4.995-3.699.237-6.672-1.176-8.919-4.242-2.061-2.775-3.105-6.209-3.131-10.306.133-15.301,1.216-20.987,3.251-23.76,2.272-3.172,5.392-4.704,9.356-4.599ZM48.052,46.899c1.743-.025,3.103-1.294,4.082-3.805.871-2.22,1.388-7.139,1.545-21.463-.052-3.171-.542-5.852-1.467-8.046-1.057-2.379-2.457-3.568-4.2-3.568-1.614.027-2.894,1.282-3.847,3.766-.844,2.273-1.373,7.205-1.584,21.501,0,3.225.448,5.92,1.347,8.087,1.003,2.432,2.378,3.607,4.123,3.528Z"/>
  <path class="st0" d="M82.805,10.426l-5.752.047c.249-.842.327-1.698.234-2.572-.218-1.777-1.216-2.773-2.992-2.992-1.527-.187-2.774.312-3.74,1.496-.965,1.154-1.419,2.588-1.355,4.302.062,1.808.701,3.616,1.915,5.423,1.404,1.747,3.398,2.977,5.984,3.693,2.557.748,4.55,2.977,5.984,6.686,1.341,3.429,1.933,3.802,1.778,7.822-.157,4.427-1.044,8.042-2.665,10.847-1.839,3.149-4.301,4.597-7.387,4.348-5.455-.437-8.962-2.337-10.52-5.703-.81-1.684-1.059-3.32-.747-4.909l6.778-.141c-.404,1.06-.514,2.151-.328,3.273.311,2.214,1.871,3.445,4.677,3.693,1.496.156,2.68-.982,3.552-3.413.748-2.244,1.09-5.033,1.028-8.369-.092-3.055-.593-2.507-1.496-5.063-.997-2.868-2.337-4.582-4.02-5.143-2.743-.936-5.097-2.696-7.06-5.283-1.809-2.712-2.915-5.454-3.319-8.229-.404-2.867.062-5.189,1.402-6.965,1.527-2.026,3.929-3.024,7.199-2.992,2.213.031,5.58-.062,10.099-.281l.75,10.426Z"/>
  <path class="st0" d="M117.425,34.126c-.356,7.134.406,10.55,2.285,10.243l.238,5.289-9.029.04-.219-4.853c.435-.007.851-.158,1.244-.457.819-.624,1.241-1.722,1.267-3.29.513-16.635-1.941-21.774-7.359-22.123-1.913-.102-3.529,1.018-4.846,3.361-1.124,1.976-2.019,3.94-2.686,12.598-.304,2.95-.203,5.427.301,7.431.58,2.183,1.476,3.061,2.693,2.632l-.535,4.288-10.204-.023-.268-3.983c1.522-.18,2.292-.982,2.311-2.406.049-1.451.658-11.202,1.316-35.448-.62-1.981-1.444-2.897-2.468-2.75l-.236-4.592,10.502.17.042,4.146c-.437-.024-.877.069-1.326.279-.892.387-1.355,1.134-1.385,2.237-.071,2.962-.486,6.467-.734,10,.147-.602.589-1.218,1.321-1.847,1.462-1.231,3.659-1.825,6.595-1.785,3.804.06,6.774,1.644,8.905,4.752,2.049,2.988,2.809,6.118,2.276,16.092Z"/>
</svg>