<?xml version="1.0" encoding="UTF-8"?>
<svg id="_レイヤー_1" data-name="レイヤー_1" xmlns="http://www.w3.org/2000/svg" version="1.1" viewBox="0 0 198.425 49.815">
  <!-- Generator: Adobe Illustrator 30.2.1, SVG Export Plug-In . SVG Version: 2.1.1 Build 1)  -->
  <defs>
    <style>
      .st0 {
        fill: #6ea250;
      }
    </style>
  </defs>
  <g>
    <path class="st0" d="M27.116,38.806c0,2.4.468,4.067,1.404,5.002.497.467.966.701,1.401.701v5.05l-10.238-.281.514-4.769c.468-.124.918-.436,1.357-.935.904-1.06,1.309-2.649,1.214-4.769-.219-17.517-.311-26.12-.28-25.808-.905-5.361-3.133-7.854-6.686-7.481-3.522.374-5.673,2.635-6.453,6.779-.156.811-.232,7.885-.232,27.926,0,2.026.592,3.397,1.776,4.114.591.343,1.184.499,1.776.467l.095,5.002-11.082-.047-.327-4.675c1.123.156,1.994-.452,2.619-1.824.311-.685.468-1.403.468-2.15V9.398c0-1.995-.733-3.382-2.198-4.162-.779-.404-1.527-.607-2.244-.607L.281.701,7.714.094l.328,4.535c.311-.655.903-1.293,1.776-1.917,1.713-1.247,3.896-1.808,6.546-1.684,6.202.281,9.88,3.865,11.034,10.753.062.312-.033,9.32-.281,27.024Z"/>
    <path class="st0" d="M48.687,6.767c3.169.107,5.758,1.665,7.769,4.678,1.848,2.749,2.84,6.039,2.973,9.87-.08,15.09-1.018,20.643-2.815,23.365-1.98,3.092-4.809,4.757-8.482,4.995-3.699.237-6.672-1.176-8.919-4.242-2.061-2.775-3.105-6.209-3.131-10.306.133-15.301,1.216-20.987,3.251-23.76,2.272-3.172,5.392-4.704,9.356-4.599ZM48.052,46.899c1.743-.025,3.103-1.294,4.082-3.805.871-2.22,1.388-7.139,1.545-21.463-.052-3.171-.542-5.852-1.467-8.046-1.057-2.379-2.457-3.568-4.2-3.568-1.614.027-2.894,1.282-3.847,3.766-.844,2.273-1.373,7.205-1.584,21.501,0,3.225.448,5.92,1.347,8.087,1.003,2.432,2.378,3.607,4.123,3.528Z"/>
    <path class="st0" d="M82.805,10.426l-5.752.047c.249-.842.327-1.698.234-2.572-.218-1.777-1.216-2.773-2.992-2.992-1.527-.187-2.774.312-3.74,1.496-.965,1.154-1.419,2.588-1.355,4.302.062,1.808.701,3.616,1.915,5.423,1.404,1.747,3.398,2.977,5.984,3.693,2.557.748,4.55,2.977,5.984,6.686,1.341,3.429,1.933,3.802,1.778,7.822-.157,4.427-1.044,8.042-2.665,10.847-1.839,3.149-4.301,4.597-7.387,4.348-5.455-.437-8.962-2.337-10.52-5.703-.81-1.684-1.059-3.32-.747-4.909l6.778-.141c-.404,1.06-.514,2.151-.328,3.273.311,2.214,1.871,3.445,4.677,3.693,1.496.156,2.68-.982,3.552-3.413.748-2.244,1.09-5.033,1.028-8.369-.092-3.055-.593-2.507-1.496-5.063-.997-2.868-2.337-4.582-4.02-5.143-2.743-.936-5.097-2.696-7.06-5.283-1.809-2.712-2.915-5.454-3.319-8.229-.404-2.867.062-5.189,1.402-6.965,1.527-2.026,3.929-3.024,7.199-2.992,2.213.031,5.58-.062,10.099-.281l.75,10.426Z"/>
    <path class="st0" d="M117.425,34.126c-.356,7.134.406,10.55,2.285,10.243l.238,5.289-9.029.04-.219-4.853c.435-.007.851-.158,1.244-.457.819-.624,1.241-1.722,1.267-3.29.513-16.635-1.941-21.774-7.359-22.123-1.913-.102-3.529,1.018-4.846,3.361-1.124,1.976-2.019,3.94-2.686,12.598-.304,2.95-.203,5.427.301,7.431.58,2.183,1.476,3.061,2.693,2.632l-.535,4.288-10.204-.023-.268-3.983c1.522-.18,2.292-.982,2.311-2.406.049-1.451.658-11.202,1.316-35.448-.62-1.981-1.444-2.897-2.468-2.75l-.236-4.592,10.502.17.042,4.146c-.437-.024-.877.069-1.326.279-.892.387-1.355,1.134-1.385,2.237-.071,2.962-.486,6.467-.734,10,.147-.602.589-1.218,1.321-1.847,1.462-1.231,3.659-1.825,6.595-1.785,3.804.06,6.774,1.644,8.905,4.752,2.049,2.988,2.809,6.118,2.276,16.092Z"/>
  </g>
  <g>
    <path class="st0" d="M144.817,33.874c-.171-.503-.582-.887-1.222-1.143l-.316-.028c-.644,0-1.219.075-1.65.212-1.262.168-2.643.371-4.109.605-.065-2.833-.256-4.745-.581-5.842l-.079-.142c-.482-.542-1.129-.625-1.825-.209l-.1.06-.048.107c-.321.716-.436,1.476-.344,2.239.097,1.425.134,2.779.111,4.069.012.121.008.195.002.237-1.485.325-3.285.66-5.354.999-.649-.092-1.164.021-1.63.403-.504.558-.689,1.338-.551,2.318l.033.11c.292.604.815.924,1.513.924l.124-.003.105-.021c.544-.191,1.09-.341,1.623-.444.556-.106,1.126-.213,1.712-.321l.094-.03c.127-.061.26-.105.391-.13.159-.029.429-.057.855-.092l1.063-.186v.005c-.059,1.032-.164,1.778-.325,2.272-.236,1.373-.605,2.512-1.11,3.418-.524,1.181-1.013,2.091-1.454,2.708-.048-.006-.096-.008-.143-.008-.384,0-.913.186-1.252,1.077l-.02.077c-.166,1.107.086,1.96.747,2.536l.14.076c.198.059.394.088.584.088.591,0,1.124-.278,1.584-.824l.058-.096c.121-.288.332-.62.652-1.025.749-1.212,1.49-2.614,2.213-4.19.559-1.491.968-3.706,1.216-6.616,0-.047,0-.101.227-.142,1.375-.329,2.699-.496,3.934-.496.275,0,.546.008.837.025.653,0,1.131-.101,1.511-.345.689-.61.958-1.344.785-2.232Z"/>
    <g>
      <path class="st0" d="M153.008,40.535l-.172-.966c-.324-1.205-.608-2.483-.849-3.827-.113-.439-.36-.801-.734-1.079l-.108-.055c-.562-.18-1.076.046-1.451.647l-.049.122c-.115.561-.07,1.143.119,1.672.191,1.076.474,2.31.833,3.639.141.794.414,1.244.835,1.376l.075.015c.049.005.098.007.145.007.504,0,1.148-.258,1.347-1.488l.01-.062Z"/>
      <path class="st0" d="M154.034,39.795c.111.614.499.966,1.065.966h.095l.969-.526.052-.105c.206-.413.257-.952.154-1.647l-.025-.092c-.256-.599-.418-1.297-.489-2.124-.252-1.163-.548-1.846-.979-2.18-.596-.342-1.183-.151-1.593.536l-.044.074-.007.085c-.071.831.023,1.835.29,3.024.209.621.382,1.291.513,1.99Z"/>
      <path class="st0" d="M161.93,33.548c-.44-1.101-1.229-1.279-2.018-.409l-.078.135c-.236.727-.323,1.569-.258,2.504-.222,1.384-.579,2.688-1.065,3.889-.358.98-.846,2.122-1.443,3.379-.528.992-1.2,1.964-1.996,2.889-.405.466-.91.894-1.519,1.283-.382.276-.935.913-.354,2.084l.039.078.069.053c.248.188.509.284.777.284.278,0,.553-.103.761-.271.375-.197.804-.496,1.337-.943.931-.963,1.693-1.915,2.249-2.809.764-1.072,1.342-2.14,1.713-3.17.402-1.066.834-2.355,1.282-3.826.244-.755.433-1.769.559-2.992.132-.83.117-1.542-.057-2.155Z"/>
    </g>
    <g>
      <path class="st0" d="M183.177,31.333l-1.079-.714h-.11c-.342,0-.948.135-1.174,1.073-.152,1.009-.492,2.051-1.021,3.12-.601,1.441-1.329,2.816-2.177,4.103-.779,1.332-1.656,2.52-2.617,3.54-.67.764-1.598,1.519-2.752,2.24-.693.412-1.361.655-1.988.721-.698-.212-1.306-.28-1.881-.195l-.705.121-.508.89.007.111c.055.911.315,1.57.816,1.989.454.283,1.071.5,1.832.646l.057.011.057-.007c.942-.112,1.676-.373,2.181-.777.94-.363,1.876-.888,2.789-1.567,1.179-.915,2.302-2.005,3.357-3.265,1.104-1.564,2.11-3.131,3.008-4.697.534-1.245,1.147-2.76,1.79-4.444.26-.423.459-.871.599-1.362.107-.556-.059-1.088-.479-1.539Z"/>
      <path class="st0" d="M165.989,30.974c.169.406.46.71.861.903l.125.06.135-.037c1.326-.365,2.309-.52,2.934-.457.396.225.808.401,1.226.524l.143.041.132-.067c.593-.303.952-.648,1.094-1.051.225-.227.458-.493.695-.79l.108-.136-.034-.17c-.209-1.049-.66-1.705-1.338-1.95l-.073-.026-.078.005c-1.382.092-2.624.208-3.663.344-.943.053-1.548.274-1.804.622-.456.412-.614,1.095-.486,2.088l.025.096Z"/>
      <path class="st0" d="M170.805,38.312c.476.258.994.24,1.391.004.595-.286.961-.915,1.088-1.868l.013-.102-.04-.094c-.332-.777-.914-1.227-1.682-1.301l-.039-.004-.038.004c-1.519.169-3.266.425-5.192.76l-.108.019-.665.616-.023.12c-.189.982-.078,1.792.33,2.408l.056.084.092.044c.262.128.528.193.791.193.284,0,.565-.076.778-.199,1.142-.4,2.235-.63,3.249-.685Z"/>
    </g>
    <path class="st0" d="M198.409,46.567c-.161-.585-.575-.97-1.193-1.115l-.084-.01c-.836,0-1.668-.202-2.473-.6l-.076-.034c-.02-.08-.046-.284.022-.743.25-1.548.412-2.869.48-3.917.137-1.397.194-2.879.166-4.463-.164-.933-.727-1.223-1.169-1.302l-.041-.007-1.383.066c-1.693.14-3.247.248-4.62.319l-.21.011-.099.186c-.289.542-.364,1.21-.227,1.973.039.274.212.967,1.499.738,1.073-.221,2.419-.347,4-.375l.015-.002c-.277,2.81-.529,5.146-.748,6.94-.03.211-.125.703-.37.703h0l-.051-.004-.051.01c-1.413.292-3.137.461-5.124.503l-.109.002-.09.06c-.726.487-.841,1.066-.812,1.429-.015.68.338,1.185.994,1.422l.1.036.104-.023c.845-.18,2.086-.35,3.64-.503,2.305.071,4.57.27,6.731.592l.102.015.095-.04c.484-.201,1.049-.674.996-1.787l-.013-.082Z"/>
  </g>
</svg>