<?xml version="1.0" encoding="UTF-8"?>
<svg id="_レイヤー_1" data-name="レイヤー_1" xmlns="http://www.w3.org/2000/svg" version="1.1" viewBox="0 0 70.104 48.548">
  <!-- Generator: Adobe Illustrator 30.2.1, SVG Export Plug-In . SVG Version: 2.1.1 Build 1)  -->
  <defs>
    <style>
      .st0 {
        fill: #6ea250;
      }
    </style>
  </defs>
  <g>
    <path class="st0" d="M15.848,22.68c0,1.403.274,2.377.821,2.924.291.273.564.41.819.41v2.951l-5.984-.164.3-2.787c.273-.073.537-.255.793-.546.528-.619.765-1.548.71-2.787-.128-10.238-.182-15.265-.164-15.084-.529-3.133-1.831-4.591-3.908-4.372-2.059.219-3.316,1.54-3.771,3.962-.091.474-.136,4.608-.136,16.322,0,1.184.346,1.985,1.038,2.405.345.2.692.291,1.038.273l.055,2.923-6.477-.027-.191-2.732c.656.091,1.165-.264,1.531-1.066.182-.4.274-.82.274-1.257V5.493c0-1.166-.429-1.977-1.285-2.432-.455-.236-.892-.355-1.312-.355L.165.41,4.509.055l.191,2.65c.182-.382.528-.756,1.038-1.12,1.001-.728,2.277-1.057,3.826-.984,3.625.164,5.774,2.259,6.449,6.285.036.182-.019,5.447-.165,15.794Z"/>
    <path class="st0" d="M28.455,3.955c1.852.062,3.365.973,4.54,2.734,1.08,1.607,1.66,3.53,1.737,5.769-.047,8.819-.595,12.065-1.645,13.655-1.157,1.807-2.811,2.78-4.957,2.919-2.162.138-3.899-.687-5.213-2.479-1.205-1.621-1.815-3.629-1.83-6.023.077-8.943.711-12.266,1.9-13.887,1.328-1.854,3.151-2.749,5.468-2.688ZM28.084,27.41c1.019-.015,1.814-.756,2.386-2.224.509-1.298.811-4.172.903-12.544-.031-1.853-.317-3.42-.857-4.702-.618-1.39-1.436-2.086-2.455-2.086-.943.016-1.691.749-2.248,2.201-.493,1.329-.802,4.211-.926,12.566,0,1.885.262,3.46.787,4.726.586,1.421,1.39,2.108,2.41,2.062Z"/>
    <path class="st0" d="M48.395,6.094l-3.362.027c.145-.492.191-.993.137-1.503-.127-1.038-.711-1.621-1.749-1.749-.893-.109-1.622.182-2.186.874-.564.674-.829,1.513-.792,2.514.036,1.057.41,2.113,1.119,3.169.821,1.021,1.986,1.74,3.497,2.159,1.494.437,2.659,1.74,3.497,3.907.784,2.004,1.13,2.222,1.039,4.572-.092,2.587-.61,4.7-1.558,6.34-1.075,1.84-2.514,2.687-4.317,2.541-3.188-.255-5.238-1.366-6.148-3.333-.473-.984-.619-1.94-.436-2.869l3.962-.082c-.236.619-.301,1.257-.191,1.913.182,1.294,1.093,2.013,2.733,2.159.874.091,1.566-.574,2.076-1.995.437-1.312.637-2.942.601-4.891-.054-1.785-.347-1.465-.875-2.959-.583-1.676-1.366-2.678-2.35-3.006-1.603-.547-2.979-1.576-4.126-3.088-1.057-1.585-1.704-3.188-1.94-4.81-.236-1.676.036-3.032.82-4.071.893-1.184,2.296-1.767,4.207-1.749,1.293.018,3.261-.036,5.902-.164l.438,6.094Z"/>
    <path class="st0" d="M68.629,19.945c-.208,4.17.237,6.166,1.335,5.986l.139,3.091-5.277.024-.128-2.836c.254-.004.497-.092.727-.267.479-.364.725-1.006.74-1.923.3-9.722-1.134-12.726-4.301-12.93-1.118-.06-2.062.595-2.832,1.965-.657,1.155-1.18,2.303-1.57,7.363-.178,1.724-.119,3.172.176,4.343.339,1.276.863,1.789,1.574,1.538l-.313,2.506-5.964-.013-.157-2.328c.89-.105,1.339-.574,1.351-1.406.028-.848.385-6.547.769-20.718-.362-1.158-.844-1.693-1.443-1.607l-.138-2.684,6.138.1.025,2.423c-.255-.014-.513.04-.775.163-.522.226-.792.663-.809,1.307-.041,1.731-.284,3.78-.429,5.844.086-.352.344-.712.772-1.08.854-.719,2.139-1.067,3.854-1.043,2.223.035,3.959.961,5.204,2.777,1.198,1.746,1.641,3.576,1.33,9.405Z"/>
  </g>
  <g>
    <path class="st0" d="M24.571,39.231c-.1-.294-.34-.519-.714-.668l-.184-.017c-.376,0-.712.044-.964.124-.738.098-1.545.217-2.401.354-.038-1.656-.15-2.773-.34-3.414l-.046-.083c-.282-.317-.66-.365-1.067-.122l-.059.035-.028.063c-.187.419-.255.863-.201,1.309.057.833.078,1.624.065,2.378.007.071.005.114.001.138-.868.19-1.92.386-3.129.584-.38-.054-.68.012-.953.236-.294.326-.402.782-.322,1.355l.02.064c.17.353.476.54.884.54l.072-.002.061-.012c.318-.112.637-.199.949-.259.325-.062.658-.125,1-.187l.055-.018c.074-.035.152-.061.229-.076.093-.017.251-.033.499-.054l.621-.109v.003c-.034.603-.096,1.039-.19,1.328-.138.802-.354,1.468-.649,1.998-.306.69-.592,1.222-.85,1.583-.028-.003-.056-.005-.083-.005-.224,0-.533.109-.732.629l-.012.045c-.097.647.05,1.146.437,1.482l.082.045c.116.034.23.051.341.051.346,0,.657-.162.926-.482l.034-.056c.071-.168.194-.362.381-.599.438-.708.871-1.528,1.293-2.449.327-.871.566-2.166.711-3.867,0-.028,0-.059.133-.083.803-.192,1.577-.29,2.3-.29.161,0,.319.005.489.015.382,0,.661-.059.883-.202.403-.356.56-.785.459-1.304Z"/>
    <g>
      <path class="st0" d="M29.358,43.124l-.1-.565c-.19-.704-.355-1.451-.496-2.236-.066-.256-.21-.468-.429-.631l-.063-.032c-.329-.105-.629.027-.848.378l-.029.071c-.067.328-.041.668.069.977.112.629.277,1.35.487,2.126.083.464.242.727.488.804l.044.009c.029.003.057.004.085.004.295,0,.671-.151.787-.87l.006-.036Z"/>
      <path class="st0" d="M29.958,42.692c.065.359.292.564.622.564h.055l.566-.308.031-.061c.121-.242.15-.556.09-.962l-.015-.054c-.15-.35-.244-.758-.286-1.242-.147-.68-.32-1.079-.572-1.274-.348-.2-.691-.088-.931.313l-.026.043-.004.05c-.042.485.013,1.073.17,1.767.122.363.223.755.3,1.163Z"/>
      <path class="st0" d="M34.572,39.04c-.257-.643-.718-.747-1.179-.239l-.045.079c-.138.425-.189.917-.151,1.463-.13.809-.338,1.571-.622,2.273-.209.573-.494,1.24-.843,1.975-.309.58-.701,1.148-1.166,1.688-.237.273-.532.523-.888.75-.223.161-.547.533-.207,1.218l.023.046.04.031c.145.11.298.166.454.166.162,0,.323-.06.445-.159.219-.115.47-.29.782-.551.544-.563.989-1.119,1.314-1.642.447-.626.784-1.251,1.001-1.853.235-.623.487-1.376.749-2.236.143-.442.253-1.034.327-1.749.077-.485.068-.901-.034-1.259Z"/>
    </g>
    <g>
      <path class="st0" d="M46.99,37.746l-.63-.417h-.065c-.2,0-.554.079-.686.627-.089.59-.288,1.199-.597,1.824-.351.842-.777,1.646-1.273,2.398-.455.778-.968,1.473-1.529,2.069-.391.447-.934.888-1.608,1.309-.405.241-.796.382-1.162.421-.408-.124-.763-.163-1.1-.114l-.412.071-.297.521.004.065c.032.533.184.917.477,1.163.265.166.626.292,1.071.378l.033.006.033-.004c.55-.065.979-.218,1.275-.454.549-.212,1.096-.519,1.63-.916.689-.535,1.346-1.172,1.962-1.908.645-.914,1.233-1.83,1.758-2.745.312-.728.67-1.613,1.046-2.597.152-.247.268-.509.35-.796.062-.325-.034-.636-.28-.899Z"/>
      <path class="st0" d="M36.945,37.537c.099.238.269.415.503.528l.073.035.079-.022c.775-.213,1.349-.304,1.715-.267.231.132.472.235.717.306l.083.024.077-.039c.346-.177.556-.379.639-.614.131-.133.268-.288.406-.462l.063-.079-.02-.099c-.122-.613-.385-.996-.782-1.14l-.043-.015-.045.003c-.808.054-1.534.122-2.141.201-.551.031-.905.16-1.055.364-.266.241-.359.64-.284,1.221l.015.056Z"/>
      <path class="st0" d="M39.759,41.825c.278.151.581.14.813.003.348-.167.561-.535.636-1.092l.008-.059-.023-.055c-.194-.454-.534-.717-.983-.76l-.023-.002-.022.002c-.887.099-1.908.248-3.034.444l-.063.011-.389.36-.014.07c-.11.574-.045,1.047.193,1.407l.033.049.053.026c.153.075.309.113.462.113.166,0,.33-.044.455-.116.668-.234,1.306-.368,1.899-.4Z"/>
    </g>
    <path class="st0" d="M55.892,46.649c-.094-.342-.336-.567-.697-.651l-.049-.006c-.488,0-.975-.118-1.446-.35l-.044-.02c-.012-.047-.027-.166.013-.434.146-.905.24-1.677.28-2.289.08-.817.113-1.683.097-2.609-.096-.545-.425-.715-.683-.761l-.024-.004-.808.039c-.99.082-1.898.145-2.7.186l-.123.006-.058.109c-.169.317-.213.707-.133,1.153.023.16.124.565.876.431.627-.129,1.414-.203,2.338-.219h.009c-.162,1.641-.309,3.006-.437,4.054-.018.124-.073.411-.216.411h0l-.03-.002-.03.006c-.826.171-1.834.27-2.995.294l-.064.002-.053.035c-.424.284-.492.623-.475.835-.009.398.198.693.581.831l.059.021.061-.013c.494-.105,1.219-.205,2.127-.294,1.347.041,2.671.158,3.934.346l.06.009.056-.023c.283-.117.613-.394.582-1.044l-.008-.048Z"/>
  </g>
</svg>